<svg xmlns="http://www.w3.org/2000/svg" width="600" height="230" viewBox="0 0 600 230" role="img" aria-labelledby="t d">
<title id="t">Skyver Tools</title>
<desc id="d">A hub of free online tools: a blocklist checker and more on the way.</desc>
<defs>
  <linearGradient id="bg" x1="0" y1="0" x2="1" y2="1"><stop offset="0" stop-color="#1e2851"/><stop offset="1" stop-color="#10162e"/></linearGradient>
  <clipPath id="c"><rect width="600" height="230" rx="18"/></clipPath>
</defs>
<style>.tw{animation:tw ease-in-out infinite alternate}@keyframes tw{from{opacity:.1}to{opacity:.8}}@media (prefers-reduced-motion:reduce){.tw{animation:none}}</style>
<g clip-path="url(#c)">
  <rect width="600" height="230" fill="url(#bg)"/>
  
  <rect width="600" height="3" fill="#F0B44A" opacity=".85"/>
</g>
<rect x=".75" y=".75" width="598.5" height="228.5" rx="17.5" fill="none" stroke="#3a4478" stroke-width="1.5"/>
<rect x="32" y="30" width="68" height="26" rx="13" fill="#F0B44A" fill-opacity=".12" stroke="#F0B44A" stroke-opacity=".45"/>
<circle cx="47" cy="43" r="4" fill="#F0B44A"/>
<text x="59" y="48" font-family="'JetBrains Mono', 'Cascadia Code', Consolas, 'DejaVu Sans Mono', Menlo, monospace" font-size="13" font-weight="700" letter-spacing="1.5" fill="#F0B44A">LIVE</text>
<text x="566" y="54" text-anchor="end" font-family="Manrope, 'Segoe UI', Ubuntu, 'Helvetica Neue', Helvetica, Arial, sans-serif" font-size="24" fill="#F0B44A">↗</text>
<text x="32" y="98" font-family="Manrope, 'Segoe UI', Ubuntu, 'Helvetica Neue', Helvetica, Arial, sans-serif" font-size="30" font-weight="800" letter-spacing="-.5" fill="#F5F3EC">Skyver Tools</text>
<text x="32" y="130" font-family="Manrope, 'Segoe UI', Ubuntu, 'Helvetica Neue', Helvetica, Arial, sans-serif" font-size="18" fill="#9aa0c4">A hub of free online tools: a blocklist</text><text x="32" y="154" font-family="Manrope, 'Segoe UI', Ubuntu, 'Helvetica Neue', Helvetica, Arial, sans-serif" font-size="18" fill="#9aa0c4">checker and more on the way.</text>
<g transform="translate(522,122) scale(0.9767)"><polyline points="20,-43 4,-39 -10,-33 0,-15 12,3 15,21 6,35 -8,43 -21,37" fill="none" stroke="#F0B44A" stroke-opacity=".35" stroke-width="1.3" stroke-linejoin="round" stroke-linecap="round"/><circle cx="20" cy="-43" r="2.2" fill="#F3D08A"/><circle cx="4" cy="-39" r="2.7" fill="#F0B44A"/><circle cx="-10" cy="-33" r="2" fill="#F3D08A"/><circle cx="0" cy="-15" r="2.3" fill="#F3D08A"/><circle cx="12" cy="3" r="8.8" fill="#E8843A" fill-opacity=".22"/><circle cx="12" cy="3" r="4.6" fill="#E8843A"/><circle cx="15" cy="21" r="2.5" fill="#F0B44A"/><circle cx="6" cy="35" r="2.1" fill="#F3D08A"/><circle cx="-8" cy="43" r="2.3" fill="#F3D08A"/><circle cx="-21" cy="37" r="2.6" fill="#F3D08A"/></g>

<rect x="32" y="170" width="49" height="30" rx="15" fill="#141B3A" stroke="#3a4478"/><text x="56.5" y="190" text-anchor="middle" font-family="'JetBrains Mono', 'Cascadia Code', Consolas, 'DejaVu Sans Mono', Menlo, monospace" font-size="14" fill="#F3D08A">Web</text><rect x="89" y="170" width="108" height="30" rx="15" fill="#141B3A" stroke="#3a4478"/><text x="143" y="190" text-anchor="middle" font-family="'JetBrains Mono', 'Cascadia Code', Consolas, 'DejaVu Sans Mono', Menlo, monospace" font-size="14" fill="#F3D08A">Cloudflare</text>
<text x="568" y="191" text-anchor="end" font-family="'JetBrains Mono', 'Cascadia Code', Consolas, 'DejaVu Sans Mono', Menlo, monospace" font-size="13" fill="#6a7099">skyver.dev</text>
</svg>
